# Blender 4.1.0
# www.blender.org
mtllib Corvette.mtl
o Cube.001
v 1.000000 1.296609 -0.004007
v 1.000000 1.000000 1.610663
v 1.000000 -1.000000 1.344992
v -2.423455 1.620483 -0.004007
v -2.407590 1.000000 1.610663
v -1.000000 -1.000000 1.173037
v 2.222806 0.828008 -0.005949
v -2.278744 0.816926 1.610663
v 1.000000 0.816926 1.610663
v -2.278744 1.380612 -0.005949
v 1.792618 0.453677 -0.008980
v 1.533497 -1.026473 6.047792
v -3.234181 0.773173 -0.008980
v -0.205125 -1.026473 6.047792
v 1.792618 -0.183851 -0.014142
v 1.533497 -1.301346 6.047792
v -2.891733 0.135644 -0.014142
v -0.011671 -1.301346 6.047792
v 1.340086 -0.446196 -0.016266
v 1.000000 -0.155569 1.610663
v -1.594306 0.106408 -0.016266
v -1.594306 -0.155569 1.610663
v -1.000000 -1.000000 1.191445
v 1.000000 1.000000 1.610663
v -2.407590 1.000000 1.610663
v 1.000000 -1.000000 1.173037
v 1.000000 0.816926 1.610663
v -2.278744 0.816926 1.610663
v -3.234181 0.298121 1.610663
v 1.000000 0.531230 1.610663
v 1.000000 0.044656 1.610663
v -2.891733 -0.188452 1.610663
v -1.594306 -0.155569 1.610663
v 1.000000 -0.155569 1.610663
v -0.703795 1.000000 1.610663
v 0.000000 -1.000000 1.173037
v -0.703795 1.620483 -0.004007
v -0.639372 1.380612 -0.005949
v -0.639372 0.816926 1.610663
v 1.214790 -1.026473 6.601201
v -1.117091 0.889727 -0.008980
v -0.945867 0.252198 -0.014142
v 1.311517 -1.301346 6.601201
v -0.297153 -0.155569 1.610663
v -0.297153 0.106408 -0.016266
v -0.703795 1.000000 1.610663
v 1.105803 -0.827708 -0.022437
v 1.000000 -0.737293 1.610663
v -1.184892 -0.655790 -0.022437
v -1.184892 -0.737293 1.610663
v 1.000000 -0.737293 1.610663
v -1.184892 -0.737293 1.610663
v -0.092446 -0.655790 -0.022437
v -0.092446 -0.737293 1.610663
v 1.000000 1.296609 0.004007
v 1.000000 1.000000 -1.610663
v 1.000000 -1.000000 -1.344992
v -2.423455 1.620483 0.004007
v -2.407590 1.000000 -1.610663
v -1.000000 -1.000000 -1.173037
v 2.222806 0.828008 0.005949
v -2.278744 0.816926 -1.610663
v 1.000000 0.816926 -1.610663
v -2.278744 1.380612 0.005949
v 1.792618 0.453677 0.008980
v 1.533497 -1.026473 -6.047792
v -3.234181 0.773173 0.008980
v -0.205125 -1.026473 -6.047792
v 1.792618 -0.183851 0.014142
v 1.533497 -1.301346 -6.047792
v -2.891733 0.135644 0.014142
v -0.011671 -1.301346 -6.047792
v 1.340086 -0.446196 0.016266
v 1.000000 -0.155569 -1.610663
v -1.594306 0.106408 0.016266
v -1.594306 -0.155569 -1.610663
v -1.000000 -1.000000 -1.191445
v 1.000000 1.000000 -1.610663
v -2.407590 1.000000 -1.610663
v 1.000000 -1.000000 -1.173037
v 1.000000 0.816926 -1.610663
v -2.278744 0.816926 -1.610663
v -3.234181 0.298121 -1.610663
v 1.000000 0.531230 -1.610663
v 1.000000 0.044656 -1.610663
v -2.891733 -0.188452 -1.610663
v -1.594306 -0.155569 -1.610663
v 1.000000 -0.155569 -1.610663
v -0.703795 1.000000 -1.610663
v 0.000000 -1.000000 -1.173037
v -0.703795 1.620483 0.004007
v -0.639372 1.380612 0.005949
v -0.639372 0.816926 -1.610663
v 1.214790 -1.026473 -6.601201
v -1.117091 0.889727 0.008980
v -0.945867 0.252198 0.014142
v 1.311517 -1.301346 -6.601201
v -0.297153 -0.155569 -1.610663
v -0.297153 0.106408 0.016266
v -0.703795 1.000000 -1.610663
v 1.105803 -0.827708 0.022437
v 1.000000 -0.737293 -1.610663
v -1.184892 -0.655790 0.022437
v -1.184892 -0.737293 -1.610663
v 1.000000 -0.737293 -1.610663
v -1.184892 -0.737293 -1.610663
v -0.092446 -0.655790 0.022437
v -0.092446 -0.737293 -1.610663
vn -0.0000 1.0000 -0.0000
vn -0.0000 -0.0000 -1.0000
vn 0.8246 0.5325 0.1911
vn -0.0016 -0.0084 1.0000
vn -0.0010 -0.0059 1.0000
vn -0.9928 -0.0000 0.1194
vn 0.4897 -0.8302 -0.2665
vn 0.0703 -0.9187 -0.3886
vn 0.3671 0.1938 -0.9098
vn 0.8473 0.5157 0.1270
vn -0.0013 -0.0083 1.0000
vn -0.0026 -0.0117 0.9999
vn -0.0012 0.9841 0.1774
vn -0.0534 0.9660 0.2529
vn 0.8528 0.5193 0.0547
vn -0.0027 -0.0107 0.9999
vn -0.9591 0.2343 -0.1586
vn -0.0245 0.9658 0.2581
vn -0.6717 0.6587 -0.3391
vn -0.8984 0.0020 -0.4392
vn 0.7628 0.5369 -0.3605
vn 0.4113 -0.7575 -0.5069
vn -0.7385 0.4835 -0.4699
vn -0.4553 -0.8535 -0.2536
vn -0.0000 -0.9335 -0.3587
vn -0.0910 -0.9580 -0.2721
vn -0.0000 -0.0081 1.0000
vn 0.0795 0.9726 0.2183
vn 0.0006 -0.0173 0.9998
vn 0.0005 -0.0079 1.0000
vn -0.8875 -0.1562 -0.4335
vn -0.0964 -0.9350 -0.3412
vn 0.0002 -0.0058 1.0000
vn 0.0492 0.9743 0.2200
vn 0.0488 0.8032 -0.5937
vn -0.8178 -0.5755 -0.0000
vn -1.0000 -0.0000 -0.0000
vn -0.0000 0.8574 -0.5147
vn -0.0000 -0.0000 1.0000
vn 0.8246 0.5325 -0.1911
vn -0.0016 -0.0084 -1.0000
vn -0.0010 -0.0059 -1.0000
vn -0.9928 -0.0000 -0.1194
vn 0.4897 -0.8302 0.2665
vn 0.0703 -0.9187 0.3886
vn 0.3671 0.1938 0.9098
vn 0.8473 0.5157 -0.1270
vn -0.0013 -0.0083 -1.0000
vn -0.0026 -0.0117 -0.9999
vn -0.0012 0.9841 -0.1774
vn -0.0534 0.9660 -0.2529
vn 0.8528 0.5193 -0.0547
vn -0.0027 -0.0107 -0.9999
vn -0.9591 0.2343 0.1586
vn -0.0245 0.9658 -0.2581
vn -0.6717 0.6587 0.3391
vn -0.8984 0.0020 0.4392
vn 0.7628 0.5369 0.3605
vn 0.4113 -0.7575 0.5069
vn -0.7385 0.4835 0.4699
vn -0.4553 -0.8535 0.2536
vn -0.0000 -0.9335 0.3587
vn -0.0910 -0.9580 0.2721
vn -0.0000 -0.0081 -1.0000
vn 0.0795 0.9726 -0.2183
vn 0.0006 -0.0173 -0.9998
vn 0.0005 -0.0079 -1.0000
vn -0.8875 -0.1562 0.4335
vn -0.0964 -0.9350 0.3412
vn 0.0002 -0.0058 -1.0000
vn 0.0492 0.9743 -0.2200
vn 0.0488 0.8032 0.5937
vn -0.0000 0.8574 0.5147
vt 0.750000 0.750000
vt 0.875000 0.750000
vt 0.750000 0.750000
vt 0.602116 0.875000
vt 0.625000 0.875000
vt 0.625000 1.000000
vt 0.602116 1.000000
vt 0.602116 0.000000
vt 0.625000 0.000000
vt 0.625000 0.250000
vt 0.602116 0.250000
vt 0.602116 0.750000
vt 0.625000 0.750000
vt 0.602116 0.375000
vt 0.625000 0.375000
vt 0.625000 0.500000
vt 0.602116 0.500000
vt 0.566404 0.375000
vt 0.566404 0.500000
vt 0.566404 0.750000
vt 0.566404 0.000000
vt 0.566404 0.250000
vt 0.566404 0.875000
vt 0.566404 1.000000
vt 0.505582 0.875000
vt 0.505582 1.000000
vt 0.505582 0.000000
vt 0.505582 0.250000
vt 0.505582 0.750000
vt 0.505582 0.375000
vt 0.505582 0.500000
vt 0.480554 0.375000
vt 0.480554 0.500000
vt 0.480554 0.750000
vt 0.480554 0.000000
vt 0.480554 0.250000
vt 0.480554 0.875000
vt 0.480554 1.000000
vt 0.407838 0.875000
vt 0.407838 1.000000
vt 0.407838 0.000000
vt 0.407838 0.250000
vt 0.407838 0.750000
vt 0.407838 0.750000
vt 0.407838 0.375000
vt 0.407838 0.500000
vt 0.474774 0.000000
vt 0.480554 0.000000
vt 0.625000 0.000000
vt 0.750000 0.500000
vt 0.875000 0.500000
vt 0.375000 0.750000
vt 0.250000 0.750000
vt 0.125000 0.750000
vt 0.375000 0.000000
vt 0.375000 0.750000
vt 0.375000 0.875000
vt 0.375000 1.000000
s 0
usemtl Material
f 46/1/1 35/3/1 5/2/1 25/2/1
f 39/4/2 8/7/2 5/6/2 35/5/2
f 28/8/3 10/11/3 4/10/3 25/9/3
f 27/12/1 9/12/1 2/13/1 24/13/1
f 38/14/4 7/17/4 1/16/4 37/15/4
f 41/18/5 11/19/5 7/17/5 38/14/5
f 30/20/6 12/20/6 9/12/6 27/12/6
f 29/21/7 13/22/7 10/11/7 28/8/7
f 40/23/8 14/24/8 8/7/8 39/4/8
f 43/25/9 18/26/9 14/24/9 40/23/9
f 32/27/10 17/28/10 13/22/10 29/21/10
f 31/29/6 16/29/6 12/20/6 30/20/6
f 42/30/11 15/31/11 11/19/11 41/18/11
f 45/32/12 19/33/12 15/31/12 42/30/12
f 34/34/6 20/34/6 16/29/6 31/29/6
f 33/35/13 21/36/13 17/28/13 32/27/13
f 44/37/14 22/38/14 18/26/14 43/25/14
f 54/39/2 50/40/2 22/38/2 44/37/2
f 52/41/15 49/42/15 21/36/15 33/35/15
f 51/43/1 48/44/1 20/34/1 34/34/1
f 53/45/16 47/46/16 19/33/16 45/32/16
f 47/46/17 51/43/17 34/34/17 19/33/17
f 50/47/1 52/47/1 33/35/1 22/35/1
f 22/48/18 33/35/18 32/27/18 18/27/18
f 19/33/19 34/34/19 31/29/19 15/31/19
f 15/31/20 31/29/20 30/20/20 11/19/20
f 18/27/21 32/27/21 29/21/21 14/21/21
f 14/21/22 29/21/22 28/8/22 8/8/22
f 11/19/23 30/20/23 27/12/23 7/17/23
f 7/17/24 27/12/24 24/13/24 1/16/24
f 8/8/1 28/8/1 25/9/1 5/49/1
f 37/50/25 46/1/25 25/2/25 4/51/25
f 1/16/26 24/13/26 46/1/26 37/50/26
f 49/42/27 53/45/27 45/32/27 21/36/27
f 48/44/2 54/39/2 44/37/2 20/34/2
f 20/34/28 44/37/28 43/25/28 16/29/28
f 21/36/29 45/32/29 42/30/29 17/28/29
f 17/28/30 42/30/30 41/18/30 13/22/30
f 16/29/31 43/25/31 40/23/31 12/20/31
f 12/20/32 40/23/32 39/4/32 9/12/32
f 13/22/33 41/18/33 38/14/33 10/11/33
f 10/11/27 38/14/27 37/15/27 4/10/27
f 49/42/34 52/41/34 23/55/34 6/54/34 36/53/34 3/52/34 26/52/34 51/43/34 47/46/34 53/45/34
f 9/12/2 39/4/2 35/5/2 2/13/2
f 24/13/1 2/13/1 35/3/1 46/1/1
f 3/56/35 36/57/35 54/39/35 48/44/35
f 6/58/36 23/58/36 52/40/36 50/40/36
f 26/52/37 3/52/37 48/44/37 51/43/37
f 36/57/38 6/58/38 50/40/38 54/39/38
f 100/1/1 79/2/1 59/2/1 89/3/1
f 93/4/39 89/5/39 59/6/39 62/7/39
f 82/8/40 79/9/40 58/10/40 64/11/40
f 81/12/1 78/13/1 56/13/1 63/12/1
f 92/14/41 91/15/41 55/16/41 61/17/41
f 95/18/42 92/14/42 61/17/42 65/19/42
f 84/20/43 81/12/43 63/12/43 66/20/43
f 83/21/44 82/8/44 64/11/44 67/22/44
f 94/23/45 93/4/45 62/7/45 68/24/45
f 97/25/46 94/23/46 68/24/46 72/26/46
f 86/27/47 83/21/47 67/22/47 71/28/47
f 85/29/43 84/20/43 66/20/43 70/29/43
f 96/30/48 95/18/48 65/19/48 69/31/48
f 99/32/49 96/30/49 69/31/49 73/33/49
f 88/34/43 85/29/43 70/29/43 74/34/43
f 87/35/50 86/27/50 71/28/50 75/36/50
f 98/37/51 97/25/51 72/26/51 76/38/51
f 108/39/39 98/37/39 76/38/39 104/40/39
f 106/41/52 87/35/52 75/36/52 103/42/52
f 105/43/1 88/34/1 74/34/1 102/44/1
f 107/45/53 99/32/53 73/33/53 101/46/53
f 101/46/54 73/33/54 88/34/54 105/43/54
f 104/47/1 76/35/1 87/35/1 106/47/1
f 76/48/55 72/27/55 86/27/55 87/35/55
f 73/33/56 69/31/56 85/29/56 88/34/56
f 69/31/57 65/19/57 84/20/57 85/29/57
f 72/27/58 68/21/58 83/21/58 86/27/58
f 68/21/59 62/8/59 82/8/59 83/21/59
f 65/19/60 61/17/60 81/12/60 84/20/60
f 61/17/61 55/16/61 78/13/61 81/12/61
f 62/8/1 59/49/1 79/9/1 82/8/1
f 91/50/62 58/51/62 79/2/62 100/1/62
f 55/16/63 91/50/63 100/1/63 78/13/63
f 103/42/64 75/36/64 99/32/64 107/45/64
f 102/44/39 74/34/39 98/37/39 108/39/39
f 74/34/65 70/29/65 97/25/65 98/37/65
f 75/36/66 71/28/66 96/30/66 99/32/66
f 71/28/67 67/22/67 95/18/67 96/30/67
f 70/29/68 66/20/68 94/23/68 97/25/68
f 66/20/69 63/12/69 93/4/69 94/23/69
f 67/22/70 64/11/70 92/14/70 95/18/70
f 64/11/64 58/10/64 91/15/64 92/14/64
f 103/42/71 107/45/71 101/46/71 105/43/71 80/52/71 57/52/71 90/53/71 60/54/71 77/55/71 106/41/71
f 63/12/39 56/13/39 89/5/39 93/4/39
f 78/13/1 100/1/1 89/3/1 56/13/1
f 57/56/72 102/44/72 108/39/72 90/57/72
f 60/58/36 104/40/36 106/40/36 77/58/36
f 80/52/37 105/43/37 102/44/37 57/52/37
f 90/57/73 108/39/73 104/40/73 60/58/73
